# xmcd
# Track frame offsets:
# 150
# 27082
# 45887
# 67322
# 82762
# 99212
# 118965
# 134682
# 149390
# 162637
# 175025
# 190807
#
# Disc length: 2812 seconds
# Revision: 0
# Processed by: cddbd v1.4PL0 Copyright (c) Steve Scherf et al.
# Submitted via: VisiTrax 2.9.3.171 - For more info visit www.synapsa.com
#
DISCID=a20afa0c
DTITLE=Jim Diamond - SugarRolly Days
DYEAR=1994
DGENRE=Blues
TTITLE0=Sugarrolly Mountains
TTITLE1=The Road to Dundee
TTITLE2=One Day Without Fear
TTITLE3=Ae Fond Kiss
TTITLE4=Coulter's Candy (Ali Bali Be)
TTITLE5=The Road to Flodigary
TTITLE6=Caledonia (Heartland)
TTITLE7=Wild Mountain Thyme (Will Ye Go Lassie Go)
TTITLE8=Eastern Promise
TTITLE9=A Red, Red Rose
TTITLE10=The Rowan Tree
TTITLE11=Skye Boat Song
EXTD=
EXTT0=
EXTT1=
EXTT2=
EXTT3=
EXTT4=
EXTT5=
EXTT6=
EXTT7=
EXTT8=
EXTT9=
EXTT10=
EXTT11=
PLAYORDER=
